<svg id="Capa_1" data-name="Capa 1" xmlns="http://www.w3.org/2000/svg" viewBox="0 0 452.87 179.39"><defs><style>.cls-1{fill:#00609c;}</style></defs><path class="cls-1" d="M94,490.57c-7.79-.46-15.45-1.4-22.73-4.38a39.49,39.49,0,0,1-9.81-5.47c-9.73-7.76-13.21-17.93-11.12-30,.93-5.37,3.91-9.78,8-13.35,7.81-6.88,17-9.45,27.15-7.48C92,431.11,96.4,435,97.87,441.67a9.82,9.82,0,0,1-1.05,7.63c-2.06,3.28-5.24,3.76-8.61,3.39A7.22,7.22,0,0,1,82,447.44c-.23-.67-.27-1.41-.46-2.1a36.93,36.93,0,0,0-1.5-5c-2.24-5.07-6.86-5.74-10.31-1.39a18.34,18.34,0,0,0-3.2,6.09C62.4,458.7,65.86,469.85,78,478.3c7,4.89,14.94,6.55,23.45,5.88a41.16,41.16,0,0,0,16.09-4.25c10.81-5.63,16.75-14.78,18.63-26.62,1.68-10.58.07-20.91-3.55-30.87-2.06-5.69-4.65-11.21-7.24-16.69A209.47,209.47,0,0,1,114.92,380a38.25,38.25,0,0,1-2-16.29c1.24-10.33,6.81-17.71,15.82-22.61,7.07-3.84,14.7-5.11,22.67-5,5.61.09,11,1,15.84,3.93a15.91,15.91,0,0,1,7.8,10.43,10.19,10.19,0,0,1-12.32,12.28,8.23,8.23,0,0,1-5.92-7.09,12.75,12.75,0,0,1,1.3-6.5c1.72-3.51.75-6.06-3-7.18-8.09-2.41-18,.36-21.14,10.53-1.38,4.39-1.11,8.86-.63,13.31a38.07,38.07,0,0,0,3.33,12c3.87,8.42,7.72,16.85,11.73,25.2,3.86,8,7.36,16.14,8.81,25,3.8,23.2-6.82,44.58-27.89,55.19a65.58,65.58,0,0,1-25.25,6.86C100.73,490.28,97.38,490.4,94,490.57Z" transform="translate(-49.78 -336.13)"/><path class="cls-1" d="M475.58,434.62c7.41,2.87,14.19,5.87,20.06,10.58a20.93,20.93,0,0,1,5.4,6,11,11,0,0,1-.1,11.62,24.33,24.33,0,0,1-7.36,7.45,78.78,78.78,0,0,1-18.18,9.06,221.82,221.82,0,0,1-33.71,9.16c-11.2,2.26-22.49,4-33.84,5.21-7.93.88-15.9,1.44-23.86,2.09-14.91,1.22-29.85,1.49-44.79,1.51-13,0-26.06-.34-39.06-1.19a496.09,496.09,0,0,1-53.51-6.21c-.83-.15-1.64-.37-3-.69,5.1.39,9.64.78,14.17,1.06,8.14.5,16.27,1.16,24.41,1.35,13.34.3,26.69.54,40,.32,11.25-.19,22.51-.93,33.74-1.7q13-.9,26-2.47c22.39-2.7,44.54-6.62,66-13.94a104.14,104.14,0,0,0,20.29-9.13,39.2,39.2,0,0,0,8.69-6.73,24.77,24.77,0,0,0,2.83-3.55c3.13-4.86,3.15-9.79,0-14.63C478.59,438.12,477.16,436.6,475.58,434.62Z" transform="translate(-49.78 -336.13)"/><path class="cls-1" d="M291,399.2c.9-.79,1.42-1.23,1.92-1.7,6.32-5.92,13.74-7.11,21.81-4.85,4.36,1.22,7.85,4.55,7.38,10.39-.31,3.89-.92,7.76-1.53,11.62q-2.08,13.36-4.31,26.71a6.11,6.11,0,0,1-.93,2.42c-2.13,3.06-8.24,3.72-11,1.29-1.41-1.23-1.43-2.72-1.1-4.38.7-3.52,1.38-7,2-10.58,1.2-6.92,2.39-13.84,3.51-20.78a21.44,21.44,0,0,0,.2-4.53c-.22-3.87-2.87-6-6.66-5.26a14.73,14.73,0,0,0-10.55,7.55,49.46,49.46,0,0,0-5,14.19c-1.29,6.33-2.38,12.71-3.46,19.08a8,8,0,0,1-11,5.74,3.64,3.64,0,0,1-2.22-4.47c3.17-16.78,6.37-33.56,9.46-50.36a87,87,0,0,0,1-9.27c.23-3,1.47-4.52,4.46-4.95a27.12,27.12,0,0,1,3.09-.37,11.71,11.71,0,0,1,3.07.27c2.83.71,3.65,2.07,3.09,4.92-1,5-2,10-3,15C291.07,397.49,291.07,398.09,291,399.2Z" transform="translate(-49.78 -336.13)"/><path class="cls-1" d="M406.72,440.65a9.47,9.47,0,0,0-1.2,1c-4.28,5-10,6.29-16.17,6.33a16.49,16.49,0,0,1-7.2-1.54c-4.62-2.18-6.75-6-5.91-11.12,1-6.22,2.2-12.42,3.32-18.62,1-5.66,2.06-11.3,3.05-17,.62-3.57,2.29-5.23,5.89-5.94a8.15,8.15,0,0,1,5.59.47,3.58,3.58,0,0,1,2.13,4.5c-2.08,10-4.19,20-6.18,30a22,22,0,0,0-.29,5.95c.32,4,3.2,5.93,7.07,4.92a14.25,14.25,0,0,0,9.57-8.06A61.43,61.43,0,0,0,411,416.21c1-5.48,1.74-11,2.57-16.54a6.32,6.32,0,0,1,2.05-4.21,10.11,10.11,0,0,1,9.23-2c2.49.61,3.27,2.23,2.61,4.75-3.11,11.83-5,23.9-6.87,36a50.65,50.65,0,0,0-.57,7.39,4.68,4.68,0,0,1-3.12,4.63,8.26,8.26,0,0,1-7-.1C407.76,445.1,406.71,443.33,406.72,440.65Z" transform="translate(-49.78 -336.13)"/><path class="cls-1" d="M195.58,496.15c7.9,1.59,15.76,3.37,23.7,4.74,9.36,1.61,18.75,3,28.17,4.21q15.45,1.92,31,3.17c9.63.78,19.29,1.27,28.94,1.62,10.94.39,21.89.75,32.83.64,14.77-.16,29.55-.53,44.31-1.25,17.47-.86,34.87-2.64,52.18-5.24a335.51,335.51,0,0,0,33.11-6.48.88.88,0,0,1,.77.15c-1.29.48-2.58,1-3.88,1.44a222.42,222.42,0,0,1-36.46,9c-10.07,1.66-20.2,3-30.34,4.26-6.57.79-13.2,1.15-19.81,1.64-14.91,1.09-29.84,1.64-44.78,1.42-12-.18-24-.45-35.93-1.19s-24-1.86-36-3.28a346.83,346.83,0,0,1-56.11-10.92c-4-1.15-7.91-2.47-11.86-3.72Z" transform="translate(-49.78 -336.13)"/><path class="cls-1" d="M454,391.66a54.41,54.41,0,0,1,6.39.8,7.18,7.18,0,0,1,3.43,2,3.28,3.28,0,0,1-1.4,5.43,7.55,7.55,0,0,1-6.05-.26,10.76,10.76,0,0,0-7.92-.67,9,9,0,0,0-6.61,8.91,7.6,7.6,0,0,0,3.89,6.24c2.75,1.78,5.58,3.43,8.34,5.19a28.84,28.84,0,0,1,3.49,2.51,9.89,9.89,0,0,1,3.29,10.6c-1.73,6.8-6.25,11.27-12.58,13.78s-13.28,2.6-20.05,1.37a9.59,9.59,0,0,1-4.16-2.17c-1.8-1.5-1.66-3.63.11-5.19a5.92,5.92,0,0,1,6.71-.86,18.1,18.1,0,0,0,8.64,1.51,10.26,10.26,0,0,0,6.89-2.95c3.4-3.44,3.09-8.41-.85-11.21-2.2-1.57-4.66-2.77-6.94-4.24a45.31,45.31,0,0,1-6.06-4.24c-4.07-3.67-4.95-8.31-2.53-13.28a21.17,21.17,0,0,1,13.08-11.54A40.43,40.43,0,0,1,454,391.66Z" transform="translate(-49.78 -336.13)"/><path class="cls-1" d="M365.35,399.93c.86-.86,1.48-1.43,2-2.05a18.49,18.49,0,0,1,8.2-5.21,8.22,8.22,0,0,1,3.74-.34,3.23,3.23,0,0,1,1.86,5.5,17.72,17.72,0,0,1-3.71,2.56,5.61,5.61,0,0,1-1.78.7c-5.89,1.25-9.27,5.31-11.65,10.46a50.68,50.68,0,0,0-3.55,12.65c-.95,5.51-1.75,11-2.5,16.58a5.75,5.75,0,0,1-3.83,5.05,8.94,8.94,0,0,1-7.86-.38,3.32,3.32,0,0,1-1.82-4c1.54-7.84,3.09-15.67,4.57-23.51q1.2-6.36,2.17-12.75a47.68,47.68,0,0,0,.39-5.73c.1-3,1.32-4.67,4.2-5.28a21.91,21.91,0,0,1,5.23-.47c3.17.12,4.34,1.54,4.22,4.74C365.27,398.79,365.31,399.16,365.35,399.93Z" transform="translate(-49.78 -336.13)"/><path class="cls-1" d="M329.57,446.49a15,15,0,0,1-2-.16,4.61,4.61,0,0,1-3.7-5.51c1.95-10.67,3.94-21.34,5.79-32a75.74,75.74,0,0,0,.84-9c.19-4,1.37-5.37,5.39-5.9,1.18-.16,2.36-.47,3.54-.52,3.45-.16,5.41,2,4.81,5.41-1.69,9.51-3.47,19-5.13,28.51-.78,4.47-1.35,9-2,13.49-.5,3.48-2.21,5.17-5.71,5.61C330.87,446.42,330.31,446.44,329.57,446.49Z" transform="translate(-49.78 -336.13)"/><path class="cls-1" d="M341.83,374.21c2,.17,4.33.51,5.53,2.88s.29,4.53-1.06,6.51a8.59,8.59,0,0,1-10.62,2.9c-2.62-1.19-3.57-3.66-2.54-6.61C334.37,376.41,337.61,374.19,341.83,374.21Z" transform="translate(-49.78 -336.13)"/><path class="cls-1" d="M484.9,392.74a7,7,0,0,1,7.16,7.33,7.3,7.3,0,1,1-14.6-.26A7.07,7.07,0,0,1,484.9,392.74Zm-.12.68a6.38,6.38,0,0,0-6.39,6.63,6.38,6.38,0,1,0,12.76,0A6.4,6.4,0,0,0,484.78,393.42Z" transform="translate(-49.78 -336.13)"/><path class="cls-1" d="M269.26,401c-1.69-4.75-4.94-7.81-9.95-8.69-7.66-1.34-14.25.52-19.25,6.83-.41.52-.91,1-1.38,1.47a5.13,5.13,0,0,1,0-2.27c.36-2.45-.39-3.81-2.78-4.53a10.62,10.62,0,0,0-3.28-.33,24.77,24.77,0,0,0-3.08.42c-3,.44-4.48,2.14-4.57,5.17a47.87,47.87,0,0,1-.34,5.49c-.68,4.66-1.38,9.33-2.28,13.95-3.15,16.14-6.39,32.26-9.61,48.39-.43,2.16,0,3.33,2,4.34a9.5,9.5,0,0,0,6.77.64,5.72,5.72,0,0,0,4.73-5.31c.45-3.16.91-6.32,1.47-9.46s1.28-6.4,2-9.86c1.14.1,1.92.15,2.71.24,10.84,1.2,20.08-2,27.26-10.31,6.29-7.31,9.5-16,10.57-25.51A23.43,23.43,0,0,0,269.26,401ZM256.6,412.28a46.42,46.42,0,0,1-3.87,18.1,21.25,21.25,0,0,1-4.75,6.84,13.7,13.7,0,0,1-15.07,2.8c-1.89-.82-2-1-1.53-3.07,1.15-5.46,2.19-10.95,3.45-16.38a39.39,39.39,0,0,1,5.31-12.75,27,27,0,0,1,4-4.76,11.48,11.48,0,0,1,3.85-2.3,5.39,5.39,0,0,1,7.09,2.71,19.37,19.37,0,0,1,1.52,5A21.15,21.15,0,0,1,256.6,412.28Z" transform="translate(-49.78 -336.13)"/><path class="cls-1" d="M214.34,393.25a3.51,3.51,0,0,0-1.66.12c-1.54.73-2.92.17-4.4-.23-10.2-2.77-19.44-1-27.47,6.07a38.16,38.16,0,0,0-7.22,8.6c-4.63,7.46-7.66,15.47-7.66,24.35,0,6.14,2.5,11.08,8.16,13.87,5.81,2.87,11.64,2.73,16.94-1.28a59.75,59.75,0,0,0,6-5.84c.54-.54,1-1.15,1.5-1.73l.52.25c-.15,1.49-.36,3-.44,4.48a3.81,3.81,0,0,0,2.68,4.29,8.51,8.51,0,0,0,7.81-.68,3.62,3.62,0,0,0,1.87-3.13c.57-9.18,2.29-18.21,4-27.23,1.07-5.64,2.24-11.27,3.35-16.91A3.94,3.94,0,0,0,214.34,393.25Zm-10.47,12.64c-1.13,5.79-2.2,11.59-3.46,17.35a23.82,23.82,0,0,1-4.77,10.6A27.34,27.34,0,0,1,191.1,438a8.28,8.28,0,0,1-3.52,1.34c-3.5.57-5.94-.81-7.14-4.15a18.5,18.5,0,0,1-1.15-5.59,42.45,42.45,0,0,1,5-21.89,25,25,0,0,1,3.31-4.67A14.52,14.52,0,0,1,205,399.75C204.59,401.84,204.26,403.87,203.87,405.89Z" transform="translate(-49.78 -336.13)"/><path class="cls-1" d="M486.11,400.73l1.67,3.12-.33.24a9.8,9.8,0,0,1-1-1A23.59,23.59,0,0,0,485,400.9c-.78-.84-1.67-.55-1.88.58a8.17,8.17,0,0,1-.62,2.36,36,36,0,0,1-.4-8c1.29,0,2.46-.14,3.61-.08a2.3,2.3,0,0,1,1.21,4.32A6,6,0,0,0,486.11,400.73Zm-2.88-4.2v3.05c.89,0,1.59,0,2.29,0a1.43,1.43,0,0,0,1.52-1.5c0-1-.68-1.41-1.54-1.52A20.26,20.26,0,0,0,483.23,396.53Z" transform="translate(-49.78 -336.13)"/></svg>